<svg width="215" height="113" viewBox="0 0 215 113" fill="none" xmlns="http://www.w3.org/2000/svg">
<rect width="215" height="113" fill="#E0CB0F"/>
<path d="M28.2383 84V42.8477H38.6973V46.7441H38.7656C39.2214 46.1061 39.791 45.4681 40.4746 44.8301C41.2038 44.1465 42.3431 43.4401 43.8926 42.7109C45.4421 41.9818 47.0371 41.6172 48.6777 41.6172C52.9616 41.6172 56.1745 43.668 58.3164 47.7695C60.9141 43.668 64.8789 41.6172 70.2109 41.6172C72.6719 41.6172 74.7682 42.0501 76.5 42.916C78.2773 43.7819 79.6445 45.0124 80.6016 46.6074C81.5586 48.1569 82.2422 49.8431 82.6523 51.666C83.0625 53.4434 83.2676 55.4258 83.2676 57.6133V84H72.3301V57.8184C72.3301 55.4941 71.9883 53.7624 71.3047 52.623C70.6211 51.4837 69.4818 50.9141 67.8867 50.9141C65.7904 50.9141 64.127 51.8027 62.8965 53.5801C61.7116 55.3118 61.1191 57.3854 61.1191 59.8008V84H50.3184V57.5449C50.3184 55.4941 49.931 53.8763 49.1562 52.6914C48.4271 51.5065 47.3333 50.9141 45.875 50.9141C43.6419 50.9141 41.9557 51.7344 40.8164 53.375C39.7227 54.9701 39.1758 57.112 39.1758 59.8008V84H28.2383Z" fill="black"/>
<path d="M80.6098 63.2871C80.6098 56.5879 82.4783 51.3014 86.2152 47.4277C89.9522 43.554 94.5779 41.6172 100.092 41.6172C105.424 41.6172 109.936 43.6224 113.627 47.6328C117.364 51.5977 119.233 56.8158 119.233 63.2871C119.233 64.6087 119.164 65.9303 119.028 67.252H91.684C91.684 69.8496 92.5043 72.0599 94.1449 73.8828C95.7855 75.6602 97.9958 76.5488 100.776 76.5488C102.827 76.5488 104.604 76.0475 106.108 75.0449C107.657 73.9967 108.819 72.6751 109.594 71.0801L118.686 74.293C117.319 77.3464 115.086 79.944 111.987 82.0859C108.888 84.1823 105.037 85.2305 100.434 85.2305C94.6462 85.2305 89.8839 83.248 86.1469 79.2832C82.4555 75.3184 80.6098 69.9863 80.6098 63.2871ZM91.7523 59.8008H108.09C108.09 57.1576 107.384 54.9017 105.971 53.0332C104.604 51.1191 102.644 50.1621 100.092 50.1621C97.4945 50.1621 95.4437 51.1191 93.9398 53.0332C92.4815 54.9473 91.7523 57.2031 91.7523 59.8008Z" fill="black"/>
<path d="M114.866 63.2871C114.866 56.5879 116.735 51.3014 120.471 47.4277C124.208 43.554 128.834 41.6172 134.348 41.6172C139.68 41.6172 144.192 43.6224 147.884 47.6328C151.621 51.5977 153.489 56.8158 153.489 63.2871C153.489 64.6087 153.421 65.9303 153.284 67.252H125.94C125.94 69.8496 126.761 72.0599 128.401 73.8828C130.042 75.6602 132.252 76.5488 135.032 76.5488C137.083 76.5488 138.86 76.0475 140.364 75.0449C141.914 73.9967 143.076 72.6751 143.85 71.0801L152.942 74.293C151.575 77.3464 149.342 79.944 146.243 82.0859C143.144 84.1823 139.293 85.2305 134.69 85.2305C128.902 85.2305 124.14 83.248 120.403 79.2832C116.712 75.3184 114.866 69.9863 114.866 63.2871ZM126.009 59.8008H142.346C142.346 57.1576 141.64 54.9017 140.227 53.0332C138.86 51.1191 136.901 50.1621 134.348 50.1621C131.751 50.1621 129.7 51.1191 128.196 53.0332C126.738 54.9473 126.009 57.2031 126.009 59.8008Z" fill="black"/>
<path d="M149.122 63.3555C149.122 56.5651 150.763 51.2559 154.044 47.4277C157.371 43.554 161.632 41.6172 166.827 41.6172C170.655 41.6172 173.732 43.0299 176.056 45.8555V26.3047H186.925V84H176.329V79.8984C175.509 81.3112 174.21 82.5645 172.433 83.6582C170.655 84.7064 168.764 85.2305 166.759 85.2305C164.571 85.2305 162.452 84.8203 160.402 84C158.396 83.1797 156.528 81.9492 154.796 80.3086C153.064 78.668 151.674 76.3893 150.626 73.4727C149.624 70.556 149.122 67.1836 149.122 63.3555ZM160.333 63.3555C160.333 67.4115 161.04 70.5332 162.452 72.7207C163.911 74.8626 165.87 75.9336 168.331 75.9336C170.747 75.9336 172.638 74.8171 174.005 72.584C175.418 70.3509 176.124 67.2747 176.124 63.3555C176.124 59.6185 175.463 56.6107 174.142 54.332C172.82 52.0534 170.883 50.9141 168.331 50.9141C165.688 50.9141 163.683 52.0534 162.316 54.332C160.994 56.5651 160.333 59.5729 160.333 63.3555Z" fill="black"/>
<rect width="11" height="11" fill="black"/>
<path d="M215 113V102L204 113H215Z" fill="black"/>
</svg>
