<svg width="215" height="104" viewBox="0 0 215 104" fill="none" xmlns="http://www.w3.org/2000/svg">
<mask id="mask0" mask-type="alpha" maskUnits="userSpaceOnUse" x="0" y="0" width="215" height="104">
<rect width="215" height="104" fill="white"/>
</mask>
<g mask="url(#mask0)">
<path d="M-14.4095 139.896L230.312 107.494L233.457 13.6097L-11.395 49.9005L-14.4095 139.896Z" fill="#20A7F2"/>
<path d="M28.2383 75V33.8477H38.6973V37.7441H38.7656C39.2214 37.1061 39.791 36.4681 40.4746 35.8301C41.2038 35.1465 42.3431 34.4401 43.8926 33.7109C45.4421 32.9818 47.0371 32.6172 48.6777 32.6172C52.9616 32.6172 56.1745 34.668 58.3164 38.7695C60.9141 34.668 64.8789 32.6172 70.2109 32.6172C72.6719 32.6172 74.7682 33.0501 76.5 33.916C78.2773 34.7819 79.6445 36.0124 80.6016 37.6074C81.5586 39.1569 82.2422 40.8431 82.6523 42.666C83.0625 44.4434 83.2676 46.4258 83.2676 48.6133V75H72.3301V48.8184C72.3301 46.4941 71.9883 44.7624 71.3047 43.623C70.6211 42.4837 69.4818 41.9141 67.8867 41.9141C65.7904 41.9141 64.127 42.8027 62.8965 44.5801C61.7116 46.3118 61.1191 48.3854 61.1191 50.8008V75H50.3184V48.5449C50.3184 46.4941 49.931 44.8763 49.1562 43.6914C48.4271 42.5065 47.3333 41.9141 45.875 41.9141C43.6419 41.9141 41.9557 42.7344 40.8164 44.375C39.7227 45.9701 39.1758 48.112 39.1758 50.8008V75H28.2383Z" fill="black"/>
<path d="M80.6098 54.2871C80.6098 47.5879 82.4783 42.3014 86.2152 38.4277C89.9522 34.554 94.5779 32.6172 100.092 32.6172C105.424 32.6172 109.936 34.6224 113.627 38.6328C117.364 42.5977 119.233 47.8158 119.233 54.2871C119.233 55.6087 119.164 56.9303 119.028 58.252H91.684C91.684 60.8496 92.5043 63.0599 94.1449 64.8828C95.7855 66.6602 97.9958 67.5488 100.776 67.5488C102.827 67.5488 104.604 67.0475 106.108 66.0449C107.657 64.9967 108.819 63.6751 109.594 62.0801L118.686 65.293C117.319 68.3464 115.086 70.944 111.987 73.0859C108.888 75.1823 105.037 76.2305 100.434 76.2305C94.6462 76.2305 89.8839 74.248 86.1469 70.2832C82.4555 66.3184 80.6098 60.9863 80.6098 54.2871ZM91.7523 50.8008H108.09C108.09 48.1576 107.384 45.9017 105.971 44.0332C104.604 42.1191 102.644 41.1621 100.092 41.1621C97.4945 41.1621 95.4437 42.1191 93.9398 44.0332C92.4815 45.9473 91.7523 48.2031 91.7523 50.8008Z" fill="black"/>
<path d="M114.866 54.2871C114.866 47.5879 116.735 42.3014 120.471 38.4277C124.208 34.554 128.834 32.6172 134.348 32.6172C139.68 32.6172 144.192 34.6224 147.884 38.6328C151.621 42.5977 153.489 47.8158 153.489 54.2871C153.489 55.6087 153.421 56.9303 153.284 58.252H125.94C125.94 60.8496 126.761 63.0599 128.401 64.8828C130.042 66.6602 132.252 67.5488 135.032 67.5488C137.083 67.5488 138.86 67.0475 140.364 66.0449C141.914 64.9967 143.076 63.6751 143.85 62.0801L152.942 65.293C151.575 68.3464 149.342 70.944 146.243 73.0859C143.144 75.1823 139.293 76.2305 134.69 76.2305C128.902 76.2305 124.14 74.248 120.403 70.2832C116.712 66.3184 114.866 60.9863 114.866 54.2871ZM126.009 50.8008H142.346C142.346 48.1576 141.64 45.9017 140.227 44.0332C138.86 42.1191 136.901 41.1621 134.348 41.1621C131.751 41.1621 129.7 42.1191 128.196 44.0332C126.738 45.9473 126.009 48.2031 126.009 50.8008Z" fill="black"/>
<path d="M149.122 54.3555C149.122 47.5651 150.763 42.2559 154.044 38.4277C157.371 34.554 161.632 32.6172 166.827 32.6172C170.655 32.6172 173.732 34.0299 176.056 36.8555V17.3047H186.925V75H176.329V70.8984C175.509 72.3112 174.21 73.5645 172.433 74.6582C170.655 75.7064 168.764 76.2305 166.759 76.2305C164.571 76.2305 162.452 75.8203 160.402 75C158.396 74.1797 156.528 72.9492 154.796 71.3086C153.064 69.668 151.674 67.3893 150.626 64.4727C149.624 61.556 149.122 58.1836 149.122 54.3555ZM160.333 54.3555C160.333 58.4115 161.04 61.5332 162.452 63.7207C163.911 65.8626 165.87 66.9336 168.331 66.9336C170.747 66.9336 172.638 65.8171 174.005 63.584C175.418 61.3509 176.124 58.2747 176.124 54.3555C176.124 50.6185 175.463 47.6107 174.142 45.332C172.82 43.0534 170.883 41.9141 168.331 41.9141C165.688 41.9141 163.683 43.0534 162.316 45.332C160.994 47.5651 160.333 50.5729 160.333 54.3555Z" fill="black"/>
<path d="M10.9258 96V86.4023H13.2695L14.6875 90.4453C14.7969 90.7656 14.9375 91.2109 15.1094 91.7812C15.2812 92.3438 15.3984 92.7227 15.4609 92.918H15.5078C15.9297 91.6289 16.2031 90.8047 16.3281 90.4453L17.7109 86.4023H20.0664V96H18.1328V92.2969C18.1328 91.6875 18.2031 90.6875 18.3437 89.2969H18.2851L17.4648 91.8047L16.1758 95.5547H14.8164L13.5391 91.8047L12.707 89.2734H12.6367C12.7773 90.4219 12.8476 91.4297 12.8476 92.2969V96H10.9258Z" fill="black"/>
<path d="M20.9837 92.4492C20.9837 91.3008 21.3041 90.3945 21.9447 89.7305C22.5853 89.0664 23.3783 88.7344 24.3236 88.7344C25.2376 88.7344 26.0111 89.0781 26.6439 89.7656C27.2845 90.4453 27.6048 91.3398 27.6048 92.4492C27.6048 92.6758 27.5931 92.9023 27.5697 93.1289H22.8822C22.8822 93.5742 23.0228 93.9531 23.3041 94.2656C23.5853 94.5703 23.9642 94.7227 24.4408 94.7227C24.7923 94.7227 25.097 94.6367 25.3548 94.4648C25.6205 94.2852 25.8197 94.0586 25.9525 93.7852L27.5111 94.3359C27.2767 94.8594 26.8939 95.3047 26.3626 95.6719C25.8314 96.0312 25.1712 96.2109 24.3822 96.2109C23.39 96.2109 22.5736 95.8711 21.933 95.1914C21.3001 94.5117 20.9837 93.5977 20.9837 92.4492ZM22.8939 91.8516H25.6947C25.6947 91.3984 25.5736 91.0117 25.3314 90.6914C25.097 90.3633 24.7611 90.1992 24.3236 90.1992C23.8783 90.1992 23.5267 90.3633 23.2689 90.6914C23.0189 91.0195 22.8939 91.4062 22.8939 91.8516Z" fill="black"/>
<path d="M27.9362 92.4609C27.9362 91.2969 28.2175 90.3867 28.78 89.7305C29.3503 89.0664 30.0808 88.7344 30.9714 88.7344C31.6276 88.7344 32.155 88.9766 32.5534 89.4609V86.1094H34.4167V96H32.6003V95.2969C32.4597 95.5391 32.237 95.7539 31.9323 95.9414C31.6276 96.1211 31.3034 96.2109 30.9597 96.2109C30.5847 96.2109 30.2214 96.1406 29.8698 96C29.5261 95.8594 29.2058 95.6484 28.9089 95.3672C28.612 95.0859 28.3737 94.6953 28.1941 94.1953C28.0222 93.6953 27.9362 93.1172 27.9362 92.4609ZM29.8581 92.4609C29.8581 93.1562 29.9792 93.6914 30.2214 94.0664C30.4714 94.4336 30.8073 94.6172 31.2292 94.6172C31.6433 94.6172 31.9675 94.4258 32.2019 94.043C32.4441 93.6602 32.5651 93.1328 32.5651 92.4609C32.5651 91.8203 32.4519 91.3047 32.2253 90.9141C31.9987 90.5234 31.6667 90.3281 31.2292 90.3281C30.7761 90.3281 30.4323 90.5234 30.198 90.9141C29.9714 91.2969 29.8581 91.8125 29.8581 92.4609Z" fill="black"/>
<path d="M35.6387 88.1953V86.2734H37.5255V88.1953H35.6387ZM35.6622 96V88.9453H37.5137V96H35.6622Z" fill="black"/>
<path d="M38.5951 93.3984V88.9453H40.4701V93.1992C40.4701 94.1445 40.7866 94.6172 41.4194 94.6172C41.7944 94.6172 42.0873 94.4453 42.2983 94.1016C42.517 93.75 42.6264 93.3359 42.6264 92.8594V88.9453H44.5014V96H42.7084V95.3672H42.6733C42.5405 95.6016 42.3256 95.8008 42.0287 95.9648C41.7319 96.1289 41.392 96.2109 41.0092 96.2109C40.8061 96.2109 40.6069 96.1914 40.4116 96.1523C40.2241 96.1211 40.0131 96.0469 39.7787 95.9297C39.5522 95.8047 39.353 95.6445 39.1811 95.4492C39.017 95.2539 38.8764 94.9805 38.7592 94.6289C38.6498 94.2695 38.5951 93.8594 38.5951 93.3984Z" fill="black"/>
<path d="M45.5945 96V88.9453H47.3875V89.6133H47.3992C47.4773 89.5039 47.575 89.3945 47.6922 89.2852C47.8172 89.168 48.0125 89.0469 48.2781 88.9219C48.5437 88.7969 48.8172 88.7344 49.0984 88.7344C49.8328 88.7344 50.3836 89.0859 50.7508 89.7891C51.1961 89.0859 51.8758 88.7344 52.7898 88.7344C53.2117 88.7344 53.5711 88.8086 53.868 88.957C54.1726 89.1055 54.407 89.3164 54.5711 89.5898C54.7351 89.8555 54.8523 90.1445 54.9226 90.457C54.993 90.7617 55.0281 91.1016 55.0281 91.4766V96H53.1531V91.5117C53.1531 91.1133 53.0945 90.8164 52.9773 90.6211C52.8601 90.4258 52.6648 90.3281 52.3914 90.3281C52.032 90.3281 51.7469 90.4805 51.5359 90.7852C51.3328 91.082 51.2312 91.4375 51.2312 91.8516V96H49.3797V91.4648C49.3797 91.1133 49.3133 90.8359 49.1805 90.6328C49.0555 90.4297 48.868 90.3281 48.618 90.3281C48.2351 90.3281 47.9461 90.4688 47.7508 90.75C47.5633 91.0234 47.4695 91.3906 47.4695 91.8516V96H45.5945Z" fill="black"/>
<path d="M60.73 90.7031H62.4058C63.4058 90.7031 63.9058 90.25 63.9058 89.3438C63.9058 88.9531 63.773 88.6445 63.5073 88.418C63.2417 88.1914 62.8706 88.0781 62.3941 88.0781H60.73V90.7031ZM58.7847 96V86.4023H62.7573C63.773 86.4023 64.5542 86.6641 65.1011 87.1875C65.648 87.7109 65.9214 88.375 65.9214 89.1797C65.9214 89.8359 65.7886 90.3672 65.523 90.7734C65.2573 91.1719 64.9448 91.4531 64.5855 91.6172C64.8589 91.8359 65.0503 92.0508 65.1597 92.2617C65.2769 92.4727 65.3745 92.8164 65.4526 93.293C65.6245 94.168 65.9917 95.0703 66.5542 96H64.3745C63.9292 95.2734 63.6089 94.418 63.4136 93.4336C63.3355 93.0586 63.2261 92.7852 63.0855 92.6133C62.9448 92.4414 62.7261 92.3555 62.4292 92.3555H60.73V96H58.7847Z" fill="black"/>
<path d="M66.452 93.8086L68.1395 93.2344C68.3426 93.6094 68.6512 93.9219 69.0653 94.1719C69.4872 94.4219 69.9247 94.5469 70.3778 94.5469C70.8231 94.5469 71.1786 94.4414 71.4442 94.2305C71.7176 94.0117 71.8544 93.7383 71.8544 93.4102C71.8544 93.0352 71.702 92.7383 71.3973 92.5195C71.0926 92.293 70.6434 92.0781 70.0497 91.875C69.1278 91.5703 68.5106 91.3359 68.1981 91.1719C67.2684 90.6641 66.8036 89.9141 66.8036 88.9219C66.8036 88.1094 67.1278 87.4531 67.7762 86.9531C68.4247 86.4453 69.2567 86.1914 70.2723 86.1914C71.1473 86.1914 71.8856 86.3984 72.4872 86.8125C73.0966 87.2188 73.5458 87.7461 73.8348 88.3945L72.1942 88.9336C71.6786 88.2227 71.0341 87.8672 70.2606 87.8672C69.8153 87.8672 69.4637 87.9648 69.2059 88.1602C68.9481 88.3477 68.8192 88.5977 68.8192 88.9102C68.8192 89.043 68.8387 89.1641 68.8778 89.2734C68.9169 89.3828 68.9911 89.4844 69.1005 89.5781C69.2176 89.6719 69.3153 89.75 69.3934 89.8125C69.4794 89.875 69.62 89.9453 69.8153 90.0234C70.0184 90.1016 70.1669 90.1602 70.2606 90.1992C70.3622 90.2305 70.5419 90.2852 70.7997 90.3633C71.0653 90.4414 71.2411 90.4961 71.327 90.5273C71.6786 90.6445 71.9911 90.7734 72.2645 90.9141C72.5458 91.0547 72.8153 91.2344 73.0731 91.4531C73.3309 91.6641 73.5301 91.9297 73.6708 92.25C73.8114 92.5703 73.8817 92.9297 73.8817 93.3281C73.8817 94.2422 73.5419 94.9531 72.8622 95.4609C72.1903 95.9609 71.3466 96.2109 70.3309 96.2109C69.4481 96.2109 68.6591 95.9961 67.9637 95.5664C67.2684 95.1367 66.7645 94.5508 66.452 93.8086Z" fill="black"/>
<path d="M74.0256 93.8086L75.7131 93.2344C75.9162 93.6094 76.2248 93.9219 76.6389 94.1719C77.0608 94.4219 77.4983 94.5469 77.9514 94.5469C78.3967 94.5469 78.7522 94.4414 79.0178 94.2305C79.2912 94.0117 79.428 93.7383 79.428 93.4102C79.428 93.0352 79.2756 92.7383 78.9709 92.5195C78.6662 92.293 78.217 92.0781 77.6233 91.875C76.7014 91.5703 76.0842 91.3359 75.7717 91.1719C74.842 90.6641 74.3772 89.9141 74.3772 88.9219C74.3772 88.1094 74.7014 87.4531 75.3498 86.9531C75.9983 86.4453 76.8303 86.1914 77.8459 86.1914C78.7209 86.1914 79.4592 86.3984 80.0608 86.8125C80.6701 87.2188 81.1194 87.7461 81.4084 88.3945L79.7678 88.9336C79.2522 88.2227 78.6076 87.8672 77.8342 87.8672C77.3889 87.8672 77.0373 87.9648 76.7795 88.1602C76.5217 88.3477 76.3928 88.5977 76.3928 88.9102C76.3928 89.043 76.4123 89.1641 76.4514 89.2734C76.4905 89.3828 76.5647 89.4844 76.674 89.5781C76.7912 89.6719 76.8889 89.75 76.967 89.8125C77.053 89.875 77.1936 89.9453 77.3889 90.0234C77.592 90.1016 77.7405 90.1602 77.8342 90.1992C77.9358 90.2305 78.1155 90.2852 78.3733 90.3633C78.6389 90.4414 78.8147 90.4961 78.9006 90.5273C79.2522 90.6445 79.5647 90.7734 79.8381 90.9141C80.1194 91.0547 80.3889 91.2344 80.6467 91.4531C80.9045 91.6641 81.1037 91.9297 81.2444 92.25C81.385 92.5703 81.4553 92.9297 81.4553 93.3281C81.4553 94.2422 81.1155 94.9531 80.4358 95.4609C79.7639 95.9609 78.9201 96.2109 77.9045 96.2109C77.0217 96.2109 76.2326 95.9961 75.5373 95.5664C74.842 95.1367 74.3381 94.5508 74.0256 93.8086Z" fill="black"/>
<path d="M84.2392 90.5273V88.9453H85.247V88.3594C85.247 87.6172 85.4306 87.0586 85.7978 86.6836C86.165 86.3008 86.6923 86.1094 87.3798 86.1094H88.622V87.7148H87.6728C87.4775 87.7148 87.3369 87.7734 87.2509 87.8906C87.165 88.0078 87.122 88.2031 87.122 88.4766V88.9453H88.4697V90.5273H87.122V96H85.247V90.5273H84.2392Z" fill="black"/>
<path d="M88.5784 92.4492C88.5784 91.3008 88.8987 90.3945 89.5394 89.7305C90.18 89.0664 90.973 88.7344 91.9183 88.7344C92.8323 88.7344 93.6058 89.0781 94.2386 89.7656C94.8792 90.4453 95.1995 91.3398 95.1995 92.4492C95.1995 92.6758 95.1878 92.9023 95.1644 93.1289H90.4769C90.4769 93.5742 90.6175 93.9531 90.8987 94.2656C91.18 94.5703 91.5589 94.7227 92.0355 94.7227C92.387 94.7227 92.6917 94.6367 92.9495 94.4648C93.2151 94.2852 93.4144 94.0586 93.5472 93.7852L95.1058 94.3359C94.8714 94.8594 94.4886 95.3047 93.9573 95.6719C93.4261 96.0312 92.7659 96.2109 91.9769 96.2109C90.9847 96.2109 90.1683 95.8711 89.5276 95.1914C88.8948 94.5117 88.5784 93.5977 88.5784 92.4492ZM90.4886 91.8516H93.2894C93.2894 91.3984 93.1683 91.0117 92.9261 90.6914C92.6917 90.3633 92.3558 90.1992 91.9183 90.1992C91.473 90.1992 91.1214 90.3633 90.8636 90.6914C90.6136 91.0195 90.4886 91.4062 90.4886 91.8516Z" fill="black"/>
<path d="M95.5309 92.4492C95.5309 91.3008 95.8512 90.3945 96.4919 89.7305C97.1325 89.0664 97.9255 88.7344 98.8708 88.7344C99.7848 88.7344 100.558 89.0781 101.191 89.7656C101.832 90.4453 102.152 91.3398 102.152 92.4492C102.152 92.6758 102.14 92.9023 102.117 93.1289H97.4294C97.4294 93.5742 97.57 93.9531 97.8512 94.2656C98.1325 94.5703 98.5114 94.7227 98.988 94.7227C99.3395 94.7227 99.6442 94.6367 99.902 94.4648C100.168 94.2852 100.367 94.0586 100.5 93.7852L102.058 94.3359C101.824 94.8594 101.441 95.3047 100.91 95.6719C100.379 96.0312 99.7184 96.2109 98.9294 96.2109C97.9372 96.2109 97.1208 95.8711 96.4801 95.1914C95.8473 94.5117 95.5309 93.5977 95.5309 92.4492ZM97.4411 91.8516H100.242C100.242 91.3984 100.121 91.0117 99.8786 90.6914C99.6442 90.3633 99.3083 90.1992 98.8708 90.1992C98.4255 90.1992 98.0739 90.3633 97.8161 90.6914C97.5661 91.0195 97.4411 91.4062 97.4411 91.8516Z" fill="black"/>
<path d="M102.483 92.4609C102.483 91.2969 102.765 90.3867 103.327 89.7305C103.897 89.0664 104.628 88.7344 105.519 88.7344C106.175 88.7344 106.702 88.9766 107.101 89.4609V86.1094H108.964V96H107.147V95.2969C107.007 95.5391 106.784 95.7539 106.48 95.9414C106.175 96.1211 105.851 96.2109 105.507 96.2109C105.132 96.2109 104.769 96.1406 104.417 96C104.073 95.8594 103.753 95.6484 103.456 95.3672C103.159 95.0859 102.921 94.6953 102.741 94.1953C102.569 93.6953 102.483 93.1172 102.483 92.4609ZM104.405 92.4609C104.405 93.1562 104.526 93.6914 104.769 94.0664C105.019 94.4336 105.355 94.6172 105.776 94.6172C106.19 94.6172 106.515 94.4258 106.749 94.043C106.991 93.6602 107.112 93.1328 107.112 92.4609C107.112 91.8203 106.999 91.3047 106.772 90.9141C106.546 90.5234 106.214 90.3281 105.776 90.3281C105.323 90.3281 104.98 90.5234 104.745 90.9141C104.519 91.2969 104.405 91.8125 104.405 92.4609Z" fill="black"/>
<path d="M109.623 94.4766L110.936 93.7031C111.412 94.375 112.01 94.7109 112.729 94.7109C113.026 94.7109 113.256 94.6484 113.42 94.5234C113.592 94.3906 113.678 94.2305 113.678 94.043C113.678 93.9805 113.666 93.918 113.643 93.8555C113.627 93.793 113.596 93.7383 113.549 93.6914C113.51 93.6367 113.467 93.5898 113.42 93.5508C113.373 93.5117 113.307 93.4727 113.221 93.4336C113.143 93.3867 113.073 93.3516 113.01 93.3281C112.948 93.2969 112.862 93.2617 112.752 93.2227C112.651 93.1836 112.565 93.1562 112.495 93.1406C112.424 93.1172 112.327 93.0859 112.202 93.0469C112.077 93.0078 111.983 92.9766 111.92 92.9531C111.327 92.7578 110.85 92.5039 110.491 92.1914C110.139 91.8789 109.963 91.4219 109.963 90.8203C109.963 90.1797 110.237 89.6719 110.784 89.2969C111.338 88.9219 111.991 88.7344 112.741 88.7344C113.327 88.7344 113.885 88.8906 114.416 89.2031C114.955 89.5078 115.358 89.9102 115.623 90.4102L114.393 91.1367C113.893 90.5352 113.35 90.2344 112.764 90.2344C112.483 90.2344 112.26 90.293 112.096 90.4102C111.94 90.5273 111.862 90.6758 111.862 90.8555C111.862 90.9414 111.877 91.0234 111.909 91.1016C111.94 91.1719 111.991 91.2383 112.061 91.3008C112.139 91.3633 112.209 91.418 112.272 91.4648C112.342 91.5117 112.44 91.5586 112.565 91.6055C112.698 91.6523 112.799 91.6914 112.87 91.7227C112.948 91.7461 113.069 91.7852 113.233 91.8398C113.397 91.8867 113.514 91.9219 113.584 91.9453C114.928 92.3984 115.6 93.1055 115.6 94.0664C115.6 94.6602 115.358 95.168 114.873 95.5898C114.389 96.0039 113.694 96.2109 112.787 96.2109C112.077 96.2109 111.44 96.0547 110.877 95.7422C110.323 95.4219 109.905 95 109.623 94.4766Z" fill="black"/>
<path d="M118.407 90.5273V88.9453H119.415V88.3594C119.415 87.6172 119.599 87.0586 119.966 86.6836C120.333 86.3008 120.86 86.1094 121.548 86.1094H122.79V87.7148H121.841C121.646 87.7148 121.505 87.7734 121.419 87.8906C121.333 88.0078 121.29 88.2031 121.29 88.4766V88.9453H122.638V90.5273H121.29V96H119.415V90.5273H118.407Z" fill="black"/>
<path d="M124.668 92.4727C124.668 93.2461 124.813 93.7969 125.102 94.125C125.391 94.4531 125.711 94.6172 126.063 94.6172C126.211 94.6172 126.356 94.5859 126.497 94.5234C126.645 94.4531 126.793 94.3477 126.942 94.207C127.09 94.0586 127.211 93.8359 127.305 93.5391C127.399 93.2344 127.446 92.8789 127.446 92.4727C127.446 92.0586 127.399 91.7031 127.305 91.4062C127.219 91.1094 127.098 90.8867 126.942 90.7383C126.793 90.5898 126.645 90.4844 126.497 90.4219C126.356 90.3594 126.211 90.3281 126.063 90.3281C125.711 90.3281 125.391 90.4922 125.102 90.8203C124.813 91.1406 124.668 91.6914 124.668 92.4727ZM122.747 92.4727C122.747 91.9883 122.809 91.5312 122.934 91.1016C123.059 90.6641 123.247 90.2656 123.497 89.9062C123.754 89.5469 124.102 89.2617 124.54 89.0508C124.985 88.8398 125.493 88.7344 126.063 88.7344C126.633 88.7344 127.137 88.8398 127.575 89.0508C128.012 89.2617 128.356 89.5469 128.606 89.9062C128.864 90.2656 129.055 90.6641 129.18 91.1016C129.305 91.5312 129.368 91.9883 129.368 92.4727C129.368 92.7852 129.34 93.0977 129.286 93.4102C129.231 93.7148 129.125 94.043 128.969 94.3945C128.821 94.7383 128.629 95.043 128.395 95.3086C128.161 95.5664 127.84 95.7812 127.434 95.9531C127.036 96.125 126.579 96.2109 126.063 96.2109C125.555 96.2109 125.102 96.1289 124.704 95.9648C124.305 95.8008 123.985 95.5938 123.743 95.3438C123.5 95.0859 123.301 94.7891 123.145 94.4531C122.997 94.1094 122.891 93.7773 122.829 93.457C122.774 93.1367 122.747 92.8086 122.747 92.4727Z" fill="black"/>
<path d="M130.086 96V88.9453H131.879V89.543C132.027 89.3242 132.238 89.1367 132.512 88.9805C132.793 88.8164 133.105 88.7344 133.449 88.7344C133.855 88.7344 134.144 88.7773 134.316 88.8633V90.5742C134.043 90.4883 133.754 90.4453 133.449 90.4453C132.949 90.4453 132.574 90.6406 132.324 91.0312C132.082 91.4219 131.961 91.9453 131.961 92.6016V96H130.086Z" fill="black"/>
<path d="M136.702 90.5273V88.9453H137.71V86.9414H139.561V88.9453H141.026V90.5273H139.561V93.6328C139.561 94.1484 139.788 94.4062 140.241 94.4062H141.038V96H140.006C138.475 96 137.71 95.2461 137.71 93.7383V90.5273H136.702Z" fill="black"/>
<path d="M141.814 96V86.1094H143.666V89.4023H143.701C144.123 88.957 144.662 88.7344 145.318 88.7344C145.623 88.7344 145.908 88.7812 146.174 88.875C146.447 88.9688 146.701 89.1172 146.935 89.3203C147.178 89.5156 147.369 89.8008 147.51 90.1758C147.65 90.543 147.721 90.9766 147.721 91.4766V96H145.846V91.6875C145.846 90.7812 145.557 90.3281 144.978 90.3281C144.596 90.3281 144.279 90.5 144.029 90.8438C143.787 91.1797 143.666 91.5781 143.666 92.0391V96H141.814Z" fill="black"/>
<path d="M148.357 92.4492C148.357 91.3008 148.677 90.3945 149.318 89.7305C149.958 89.0664 150.751 88.7344 151.697 88.7344C152.611 88.7344 153.384 89.0781 154.017 89.7656C154.657 90.4453 154.978 91.3398 154.978 92.4492C154.978 92.6758 154.966 92.9023 154.943 93.1289H150.255C150.255 93.5742 150.396 93.9531 150.677 94.2656C150.958 94.5703 151.337 94.7227 151.814 94.7227C152.165 94.7227 152.47 94.6367 152.728 94.4648C152.993 94.2852 153.193 94.0586 153.325 93.7852L154.884 94.3359C154.65 94.8594 154.267 95.3047 153.736 95.6719C153.204 96.0312 152.544 96.2109 151.755 96.2109C150.763 96.2109 149.947 95.8711 149.306 95.1914C148.673 94.5117 148.357 93.5977 148.357 92.4492ZM150.267 91.8516H153.068C153.068 91.3984 152.947 91.0117 152.704 90.6914C152.47 90.3633 152.134 90.1992 151.697 90.1992C151.251 90.1992 150.9 90.3633 150.642 90.6914C150.392 91.0195 150.267 91.4062 150.267 91.8516Z" fill="black"/>
<path d="M158.242 96V88.9453H160.035V89.6133H160.047C160.125 89.5039 160.223 89.3945 160.34 89.2852C160.465 89.168 160.66 89.0469 160.926 88.9219C161.191 88.7969 161.465 88.7344 161.746 88.7344C162.48 88.7344 163.031 89.0859 163.398 89.7891C163.844 89.0859 164.523 88.7344 165.437 88.7344C165.859 88.7344 166.219 88.8086 166.516 88.957C166.82 89.1055 167.055 89.3164 167.219 89.5898C167.383 89.8555 167.5 90.1445 167.57 90.457C167.641 90.7617 167.676 91.1016 167.676 91.4766V96H165.801V91.5117C165.801 91.1133 165.742 90.8164 165.625 90.6211C165.508 90.4258 165.312 90.3281 165.039 90.3281C164.68 90.3281 164.395 90.4805 164.184 90.7852C163.98 91.082 163.879 91.4375 163.879 91.8516V96H162.027V91.4648C162.027 91.1133 161.961 90.8359 161.828 90.6328C161.703 90.4297 161.516 90.3281 161.266 90.3281C160.883 90.3281 160.594 90.4688 160.398 90.75C160.211 91.0234 160.117 91.3906 160.117 91.8516V96H158.242Z" fill="black"/>
<path d="M170.187 93.9141C170.187 94.125 170.269 94.3047 170.433 94.4531C170.597 94.5938 170.808 94.6641 171.066 94.6641C171.48 94.6641 171.831 94.5234 172.12 94.2422C172.41 93.9609 172.554 93.5859 172.554 93.1172V92.6484C172.101 92.7578 171.742 92.832 171.476 92.8711C170.617 92.9961 170.187 93.3438 170.187 93.9141ZM168.288 94.0781C168.288 93.4375 168.535 92.9062 169.027 92.4844C169.519 92.0625 170.242 91.7812 171.195 91.6406C171.976 91.5156 172.429 91.4336 172.554 91.3945V91.0312C172.554 90.7422 172.452 90.5312 172.249 90.3984C172.054 90.2578 171.796 90.1875 171.476 90.1875C170.742 90.1875 170.109 90.4766 169.577 91.0547L168.476 90.1055C169.242 89.1914 170.234 88.7344 171.452 88.7344C172.531 88.7344 173.296 88.9922 173.749 89.5078C174.202 90.0234 174.429 90.7539 174.429 91.6992V96H172.613V95.2734C172.472 95.5391 172.238 95.7617 171.91 95.9414C171.581 96.1211 171.206 96.2109 170.785 96.2109C170.019 96.2109 169.41 96.0156 168.956 95.625C168.511 95.2266 168.288 94.7109 168.288 94.0781Z" fill="black"/>
<path d="M174.925 94.4766L176.237 93.7031C176.714 94.375 177.311 94.7109 178.03 94.7109C178.327 94.7109 178.557 94.6484 178.721 94.5234C178.893 94.3906 178.979 94.2305 178.979 94.043C178.979 93.9805 178.967 93.918 178.944 93.8555C178.928 93.793 178.897 93.7383 178.85 93.6914C178.811 93.6367 178.768 93.5898 178.721 93.5508C178.675 93.5117 178.608 93.4727 178.522 93.4336C178.444 93.3867 178.374 93.3516 178.311 93.3281C178.249 93.2969 178.163 93.2617 178.053 93.2227C177.952 93.1836 177.866 93.1562 177.796 93.1406C177.725 93.1172 177.628 93.0859 177.503 93.0469C177.378 93.0078 177.284 92.9766 177.221 92.9531C176.628 92.7578 176.151 92.5039 175.792 92.1914C175.44 91.8789 175.264 91.4219 175.264 90.8203C175.264 90.1797 175.538 89.6719 176.085 89.2969C176.639 88.9219 177.292 88.7344 178.042 88.7344C178.628 88.7344 179.186 88.8906 179.717 89.2031C180.257 89.5078 180.659 89.9102 180.925 90.4102L179.694 91.1367C179.194 90.5352 178.651 90.2344 178.065 90.2344C177.784 90.2344 177.561 90.293 177.397 90.4102C177.241 90.5273 177.163 90.6758 177.163 90.8555C177.163 90.9414 177.178 91.0234 177.21 91.1016C177.241 91.1719 177.292 91.2383 177.362 91.3008C177.44 91.3633 177.51 91.418 177.573 91.4648C177.643 91.5117 177.741 91.5586 177.866 91.6055C177.999 91.6523 178.1 91.6914 178.171 91.7227C178.249 91.7461 178.37 91.7852 178.534 91.8398C178.698 91.8867 178.815 91.9219 178.885 91.9453C180.229 92.3984 180.901 93.1055 180.901 94.0664C180.901 94.6602 180.659 95.168 180.175 95.5898C179.69 96.0039 178.995 96.2109 178.089 96.2109C177.378 96.2109 176.741 96.0547 176.178 95.7422C175.624 95.4219 175.206 95 174.925 94.4766Z" fill="black"/>
<path d="M181.092 94.4766L182.404 93.7031C182.881 94.375 183.479 94.7109 184.197 94.7109C184.494 94.7109 184.725 94.6484 184.889 94.5234C185.061 94.3906 185.147 94.2305 185.147 94.043C185.147 93.9805 185.135 93.918 185.111 93.8555C185.096 93.793 185.065 93.7383 185.018 93.6914C184.979 93.6367 184.936 93.5898 184.889 93.5508C184.842 93.5117 184.775 93.4727 184.69 93.4336C184.611 93.3867 184.541 93.3516 184.479 93.3281C184.416 93.2969 184.33 93.2617 184.221 93.2227C184.119 93.1836 184.033 93.1562 183.963 93.1406C183.893 93.1172 183.795 93.0859 183.67 93.0469C183.545 93.0078 183.451 92.9766 183.389 92.9531C182.795 92.7578 182.318 92.5039 181.959 92.1914C181.607 91.8789 181.432 91.4219 181.432 90.8203C181.432 90.1797 181.705 89.6719 182.252 89.2969C182.807 88.9219 183.459 88.7344 184.209 88.7344C184.795 88.7344 185.354 88.8906 185.885 89.2031C186.424 89.5078 186.826 89.9102 187.092 90.4102L185.861 91.1367C185.361 90.5352 184.818 90.2344 184.232 90.2344C183.951 90.2344 183.729 90.293 183.565 90.4102C183.408 90.5273 183.33 90.6758 183.33 90.8555C183.33 90.9414 183.346 91.0234 183.377 91.1016C183.408 91.1719 183.459 91.2383 183.529 91.3008C183.607 91.3633 183.678 91.418 183.74 91.4648C183.811 91.5117 183.908 91.5586 184.033 91.6055C184.166 91.6523 184.268 91.6914 184.338 91.7227C184.416 91.7461 184.537 91.7852 184.701 91.8398C184.865 91.8867 184.982 91.9219 185.053 91.9453C186.397 92.3984 187.068 93.1055 187.068 94.0664C187.068 94.6602 186.826 95.168 186.342 95.5898C185.857 96.0039 185.162 96.2109 184.256 96.2109C183.545 96.2109 182.908 96.0547 182.346 95.7422C181.791 95.4219 181.373 95 181.092 94.4766Z" fill="black"/>
<path d="M187.388 92.4492C187.388 91.3008 187.708 90.3945 188.349 89.7305C188.99 89.0664 189.783 88.7344 190.728 88.7344C191.642 88.7344 192.415 89.0781 193.048 89.7656C193.689 90.4453 194.009 91.3398 194.009 92.4492C194.009 92.6758 193.997 92.9023 193.974 93.1289H189.287C189.287 93.5742 189.427 93.9531 189.708 94.2656C189.99 94.5703 190.369 94.7227 190.845 94.7227C191.197 94.7227 191.501 94.6367 191.759 94.4648C192.025 94.2852 192.224 94.0586 192.357 93.7852L193.915 94.3359C193.681 94.8594 193.298 95.3047 192.767 95.6719C192.236 96.0312 191.576 96.2109 190.787 96.2109C189.794 96.2109 188.978 95.8711 188.337 95.1914C187.705 94.5117 187.388 93.5977 187.388 92.4492ZM189.298 91.8516H192.099C192.099 91.3984 191.978 91.0117 191.736 90.6914C191.501 90.3633 191.165 90.1992 190.728 90.1992C190.283 90.1992 189.931 90.3633 189.673 90.6914C189.423 91.0195 189.298 91.4062 189.298 91.8516Z" fill="black"/>
<path d="M194.212 94.4766L195.524 93.7031C196.001 94.375 196.598 94.7109 197.317 94.7109C197.614 94.7109 197.845 94.6484 198.009 94.5234C198.18 94.3906 198.266 94.2305 198.266 94.043C198.266 93.9805 198.255 93.918 198.231 93.8555C198.216 93.793 198.184 93.7383 198.137 93.6914C198.098 93.6367 198.055 93.5898 198.009 93.5508C197.962 93.5117 197.895 93.4727 197.809 93.4336C197.731 93.3867 197.661 93.3516 197.598 93.3281C197.536 93.2969 197.45 93.2617 197.341 93.2227C197.239 93.1836 197.153 93.1562 197.083 93.1406C197.012 93.1172 196.915 93.0859 196.79 93.0469C196.665 93.0078 196.571 92.9766 196.509 92.9531C195.915 92.7578 195.438 92.5039 195.079 92.1914C194.727 91.8789 194.552 91.4219 194.552 90.8203C194.552 90.1797 194.825 89.6719 195.372 89.2969C195.927 88.9219 196.579 88.7344 197.329 88.7344C197.915 88.7344 198.473 88.8906 199.005 89.2031C199.544 89.5078 199.946 89.9102 200.212 90.4102L198.981 91.1367C198.481 90.5352 197.938 90.2344 197.352 90.2344C197.071 90.2344 196.848 90.293 196.684 90.4102C196.528 90.5273 196.45 90.6758 196.45 90.8555C196.45 90.9414 196.466 91.0234 196.497 91.1016C196.528 91.1719 196.579 91.2383 196.649 91.3008C196.727 91.3633 196.798 91.418 196.86 91.4648C196.93 91.5117 197.028 91.5586 197.153 91.6055C197.286 91.6523 197.387 91.6914 197.458 91.7227C197.536 91.7461 197.657 91.7852 197.821 91.8398C197.985 91.8867 198.102 91.9219 198.173 91.9453C199.516 92.3984 200.188 93.1055 200.188 94.0664C200.188 94.6602 199.946 95.168 199.462 95.5898C198.977 96.0039 198.282 96.2109 197.376 96.2109C196.665 96.2109 196.028 96.0547 195.466 95.7422C194.911 95.4219 194.493 95 194.212 94.4766Z" fill="black"/>
<path d="M201.328 96V93.9141H203.637V96H201.328Z" fill="black"/>
<path d="M0 0L0 11L11 0L0 0Z" fill="black"/>
</g>
</svg>
