<svg width="215" height="113" viewBox="0 0 215 113" fill="none" xmlns="http://www.w3.org/2000/svg">
<mask id="mask0" mask-type="alpha" maskUnits="userSpaceOnUse" x="0" y="0" width="215" height="113">
<rect width="215" height="113" fill="white"/>
</mask>
<g mask="url(#mask0)">
<path d="M-14.4095 148.896L230.312 116.494L233.457 22.6097L-11.395 58.9004L-14.4095 148.896Z" fill="#E4E909"/>
<path d="M28.2383 84V42.8477H38.6973V46.7441H38.7656C39.2214 46.1061 39.791 45.4681 40.4746 44.8301C41.2038 44.1465 42.3431 43.4401 43.8926 42.7109C45.4421 41.9818 47.0371 41.6172 48.6777 41.6172C52.9616 41.6172 56.1745 43.668 58.3164 47.7695C60.9141 43.668 64.8789 41.6172 70.2109 41.6172C72.6719 41.6172 74.7682 42.0501 76.5 42.916C78.2773 43.7819 79.6445 45.0124 80.6016 46.6074C81.5586 48.1569 82.2422 49.8431 82.6523 51.666C83.0625 53.4434 83.2676 55.4258 83.2676 57.6133V84H72.3301V57.8184C72.3301 55.4941 71.9883 53.7624 71.3047 52.623C70.6211 51.4837 69.4818 50.9141 67.8867 50.9141C65.7904 50.9141 64.127 51.8027 62.8965 53.5801C61.7116 55.3118 61.1191 57.3854 61.1191 59.8008V84H50.3184V57.5449C50.3184 55.4941 49.931 53.8763 49.1562 52.6914C48.4271 51.5065 47.3333 50.9141 45.875 50.9141C43.6419 50.9141 41.9557 51.7344 40.8164 53.375C39.7227 54.9701 39.1758 57.112 39.1758 59.8008V84H28.2383Z" fill="black"/>
<path d="M80.6098 63.2871C80.6098 56.5879 82.4783 51.3014 86.2152 47.4277C89.9522 43.554 94.5779 41.6172 100.092 41.6172C105.424 41.6172 109.936 43.6224 113.627 47.6328C117.364 51.5977 119.233 56.8158 119.233 63.2871C119.233 64.6087 119.164 65.9303 119.028 67.252H91.684C91.684 69.8496 92.5043 72.0599 94.1449 73.8828C95.7855 75.6602 97.9958 76.5488 100.776 76.5488C102.827 76.5488 104.604 76.0475 106.108 75.0449C107.657 73.9967 108.819 72.6751 109.594 71.0801L118.686 74.293C117.319 77.3464 115.086 79.944 111.987 82.0859C108.888 84.1823 105.037 85.2305 100.434 85.2305C94.6462 85.2305 89.8839 83.248 86.1469 79.2832C82.4555 75.3184 80.6098 69.9863 80.6098 63.2871ZM91.7523 59.8008H108.09C108.09 57.1576 107.384 54.9017 105.971 53.0332C104.604 51.1191 102.644 50.1621 100.092 50.1621C97.4945 50.1621 95.4437 51.1191 93.9398 53.0332C92.4815 54.9473 91.7523 57.2031 91.7523 59.8008Z" fill="black"/>
<path d="M114.866 63.2871C114.866 56.5879 116.735 51.3014 120.471 47.4277C124.208 43.554 128.834 41.6172 134.348 41.6172C139.68 41.6172 144.192 43.6224 147.884 47.6328C151.621 51.5977 153.489 56.8158 153.489 63.2871C153.489 64.6087 153.421 65.9303 153.284 67.252H125.94C125.94 69.8496 126.761 72.0599 128.401 73.8828C130.042 75.6602 132.252 76.5488 135.032 76.5488C137.083 76.5488 138.86 76.0475 140.364 75.0449C141.914 73.9967 143.076 72.6751 143.85 71.0801L152.942 74.293C151.575 77.3464 149.342 79.944 146.243 82.0859C143.144 84.1823 139.293 85.2305 134.69 85.2305C128.902 85.2305 124.14 83.248 120.403 79.2832C116.712 75.3184 114.866 69.9863 114.866 63.2871ZM126.009 59.8008H142.346C142.346 57.1576 141.64 54.9017 140.227 53.0332C138.86 51.1191 136.901 50.1621 134.348 50.1621C131.751 50.1621 129.7 51.1191 128.196 53.0332C126.738 54.9473 126.009 57.2031 126.009 59.8008Z" fill="black"/>
<path d="M149.122 63.3555C149.122 56.5651 150.763 51.2559 154.044 47.4277C157.371 43.554 161.632 41.6172 166.827 41.6172C170.655 41.6172 173.732 43.0299 176.056 45.8555V26.3047H186.925V84H176.329V79.8984C175.509 81.3112 174.21 82.5645 172.433 83.6582C170.655 84.7064 168.764 85.2305 166.759 85.2305C164.571 85.2305 162.452 84.8203 160.402 84C158.396 83.1797 156.528 81.9492 154.796 80.3086C153.064 78.668 151.674 76.3893 150.626 73.4727C149.624 70.556 149.122 67.1836 149.122 63.3555ZM160.333 63.3555C160.333 67.4115 161.04 70.5332 162.452 72.7207C163.911 74.8626 165.87 75.9336 168.331 75.9336C170.747 75.9336 172.638 74.8171 174.005 72.584C175.418 70.3509 176.124 67.2747 176.124 63.3555C176.124 59.6185 175.463 56.6107 174.142 54.332C172.82 52.0534 170.883 50.9141 168.331 50.9141C165.688 50.9141 163.683 52.0534 162.316 54.332C160.994 56.5651 160.333 59.5729 160.333 63.3555Z" fill="black"/>
<path d="M10.9258 105V95.4023H13.2695L14.6875 99.4453C14.7969 99.7656 14.9375 100.211 15.1094 100.781C15.2812 101.344 15.3984 101.723 15.4609 101.918H15.5078C15.9297 100.629 16.2031 99.8047 16.3281 99.4453L17.7109 95.4023H20.0664V105H18.1328V101.297C18.1328 100.688 18.2031 99.6875 18.3437 98.2969H18.2851L17.4648 100.805L16.1758 104.555H14.8164L13.539 100.805L12.707 98.2734H12.6367C12.7773 99.4219 12.8476 100.43 12.8476 101.297V105H10.9258Z" fill="black"/>
<path d="M20.9837 101.449C20.9837 100.301 21.304 99.3945 21.9447 98.7305C22.5853 98.0664 23.3783 97.7344 24.3236 97.7344C25.2376 97.7344 26.0111 98.0781 26.6439 98.7656C27.2845 99.4453 27.6048 100.34 27.6048 101.449C27.6048 101.676 27.5931 101.902 27.5697 102.129H22.8822C22.8822 102.574 23.0228 102.953 23.304 103.266C23.5853 103.57 23.9642 103.723 24.4408 103.723C24.7923 103.723 25.097 103.637 25.3548 103.465C25.6205 103.285 25.8197 103.059 25.9525 102.785L27.5111 103.336C27.2767 103.859 26.8939 104.305 26.3626 104.672C25.8314 105.031 25.1712 105.211 24.3822 105.211C23.39 105.211 22.5736 104.871 21.933 104.191C21.3001 103.512 20.9837 102.598 20.9837 101.449ZM22.8939 100.852H25.6947C25.6947 100.398 25.5736 100.012 25.3314 99.6914C25.097 99.3633 24.7611 99.1992 24.3236 99.1992C23.8783 99.1992 23.5267 99.3633 23.2689 99.6914C23.0189 100.02 22.8939 100.406 22.8939 100.852Z" fill="black"/>
<path d="M27.9362 101.461C27.9362 100.297 28.2175 99.3867 28.78 98.7305C29.3503 98.0664 30.0808 97.7344 30.9714 97.7344C31.6276 97.7344 32.155 97.9766 32.5534 98.4609V95.1094H34.4167V105H32.6003V104.297C32.4597 104.539 32.237 104.754 31.9323 104.941C31.6276 105.121 31.3034 105.211 30.9597 105.211C30.5847 105.211 30.2214 105.141 29.8698 105C29.5261 104.859 29.2058 104.648 28.9089 104.367C28.612 104.086 28.3737 103.695 28.194 103.195C28.0222 102.695 27.9362 102.117 27.9362 101.461ZM29.8581 101.461C29.8581 102.156 29.9792 102.691 30.2214 103.066C30.4714 103.434 30.8073 103.617 31.2292 103.617C31.6433 103.617 31.9675 103.426 32.2019 103.043C32.444 102.66 32.5651 102.133 32.5651 101.461C32.5651 100.82 32.4519 100.305 32.2253 99.9141C31.9987 99.5234 31.6667 99.3281 31.2292 99.3281C30.7761 99.3281 30.4323 99.5234 30.198 99.9141C29.9714 100.297 29.8581 100.812 29.8581 101.461Z" fill="black"/>
<path d="M35.6387 97.1953V95.2734H37.5255V97.1953H35.6387ZM35.6622 105V97.9453H37.5137V105H35.6622Z" fill="black"/>
<path d="M38.5951 102.398V97.9453H40.4701V102.199C40.4701 103.145 40.7865 103.617 41.4194 103.617C41.7944 103.617 42.0873 103.445 42.2983 103.102C42.517 102.75 42.6264 102.336 42.6264 101.859V97.9453H44.5014V105H42.7084V104.367H42.6733C42.5405 104.602 42.3256 104.801 42.0287 104.965C41.7319 105.129 41.392 105.211 41.0092 105.211C40.8061 105.211 40.6069 105.191 40.4115 105.152C40.224 105.121 40.0131 105.047 39.7787 104.93C39.5522 104.805 39.353 104.645 39.1811 104.449C39.017 104.254 38.8764 103.98 38.7592 103.629C38.6498 103.27 38.5951 102.859 38.5951 102.398Z" fill="black"/>
<path d="M45.5945 105V97.9453H47.3875V98.6133H47.3992C47.4773 98.5039 47.575 98.3945 47.6922 98.2852C47.8172 98.168 48.0125 98.0469 48.2781 97.9219C48.5437 97.7969 48.8172 97.7344 49.0984 97.7344C49.8328 97.7344 50.3836 98.0859 50.7508 98.7891C51.1961 98.0859 51.8758 97.7344 52.7898 97.7344C53.2117 97.7344 53.5711 97.8086 53.868 97.957C54.1726 98.1055 54.407 98.3164 54.5711 98.5898C54.7351 98.8555 54.8523 99.1445 54.9226 99.457C54.993 99.7617 55.0281 100.102 55.0281 100.477V105H53.1531V100.512C53.1531 100.113 53.0945 99.8164 52.9773 99.6211C52.8601 99.4258 52.6648 99.3281 52.3914 99.3281C52.032 99.3281 51.7469 99.4805 51.5359 99.7852C51.3328 100.082 51.2312 100.438 51.2312 100.852V105H49.3797V100.465C49.3797 100.113 49.3133 99.8359 49.1805 99.6328C49.0555 99.4297 48.868 99.3281 48.618 99.3281C48.2351 99.3281 47.9461 99.4688 47.7508 99.75C47.5633 100.023 47.4695 100.391 47.4695 100.852V105H45.5945Z" fill="black"/>
<path d="M60.73 99.7031H62.4058C63.4058 99.7031 63.9058 99.25 63.9058 98.3438C63.9058 97.9531 63.773 97.6445 63.5073 97.418C63.2417 97.1914 62.8706 97.0781 62.394 97.0781H60.73V99.7031ZM58.7847 105V95.4023H62.7573C63.773 95.4023 64.5542 95.6641 65.1011 96.1875C65.648 96.7109 65.9214 97.375 65.9214 98.1797C65.9214 98.8359 65.7886 99.3672 65.523 99.7734C65.2573 100.172 64.9448 100.453 64.5855 100.617C64.8589 100.836 65.0503 101.051 65.1597 101.262C65.2769 101.473 65.3745 101.816 65.4526 102.293C65.6245 103.168 65.9917 104.07 66.5542 105H64.3745C63.9292 104.273 63.6089 103.418 63.4136 102.434C63.3355 102.059 63.2261 101.785 63.0855 101.613C62.9448 101.441 62.7261 101.355 62.4292 101.355H60.73V105H58.7847Z" fill="black"/>
<path d="M66.452 102.809L68.1395 102.234C68.3426 102.609 68.6512 102.922 69.0653 103.172C69.4872 103.422 69.9247 103.547 70.3778 103.547C70.8231 103.547 71.1786 103.441 71.4442 103.23C71.7176 103.012 71.8544 102.738 71.8544 102.41C71.8544 102.035 71.702 101.738 71.3973 101.52C71.0926 101.293 70.6434 101.078 70.0497 100.875C69.1278 100.57 68.5106 100.336 68.1981 100.172C67.2684 99.6641 66.8036 98.9141 66.8036 97.9219C66.8036 97.1094 67.1278 96.4531 67.7762 95.9531C68.4247 95.4453 69.2567 95.1914 70.2723 95.1914C71.1473 95.1914 71.8856 95.3984 72.4872 95.8125C73.0965 96.2188 73.5458 96.7461 73.8348 97.3945L72.1942 97.9336C71.6786 97.2227 71.034 96.8672 70.2606 96.8672C69.8153 96.8672 69.4637 96.9648 69.2059 97.1602C68.9481 97.3477 68.8192 97.5977 68.8192 97.9102C68.8192 98.043 68.8387 98.1641 68.8778 98.2734C68.9169 98.3828 68.9911 98.4844 69.1005 98.5781C69.2176 98.6719 69.3153 98.75 69.3934 98.8125C69.4794 98.875 69.62 98.9453 69.8153 99.0234C70.0184 99.1016 70.1669 99.1602 70.2606 99.1992C70.3622 99.2305 70.5419 99.2852 70.7997 99.3633C71.0653 99.4414 71.2411 99.4961 71.327 99.5273C71.6786 99.6445 71.9911 99.7734 72.2645 99.9141C72.5458 100.055 72.8153 100.234 73.0731 100.453C73.3309 100.664 73.5301 100.93 73.6708 101.25C73.8114 101.57 73.8817 101.93 73.8817 102.328C73.8817 103.242 73.5419 103.953 72.8622 104.461C72.1903 104.961 71.3465 105.211 70.3309 105.211C69.4481 105.211 68.659 104.996 67.9637 104.566C67.2684 104.137 66.7645 103.551 66.452 102.809Z" fill="black"/>
<path d="M74.0256 102.809L75.7131 102.234C75.9162 102.609 76.2248 102.922 76.6389 103.172C77.0608 103.422 77.4983 103.547 77.9514 103.547C78.3967 103.547 78.7522 103.441 79.0178 103.23C79.2912 103.012 79.4279 102.738 79.4279 102.41C79.4279 102.035 79.2756 101.738 78.9709 101.52C78.6662 101.293 78.217 101.078 77.6233 100.875C76.7014 100.57 76.0842 100.336 75.7717 100.172C74.842 99.6641 74.3772 98.9141 74.3772 97.9219C74.3772 97.1094 74.7014 96.4531 75.3498 95.9531C75.9983 95.4453 76.8303 95.1914 77.8459 95.1914C78.7209 95.1914 79.4592 95.3984 80.0608 95.8125C80.6701 96.2188 81.1194 96.7461 81.4084 97.3945L79.7678 97.9336C79.2522 97.2227 78.6076 96.8672 77.8342 96.8672C77.3889 96.8672 77.0373 96.9648 76.7795 97.1602C76.5217 97.3477 76.3928 97.5977 76.3928 97.9102C76.3928 98.043 76.4123 98.1641 76.4514 98.2734C76.4904 98.3828 76.5647 98.4844 76.674 98.5781C76.7912 98.6719 76.8889 98.75 76.967 98.8125C77.0529 98.875 77.1936 98.9453 77.3889 99.0234C77.592 99.1016 77.7404 99.1602 77.8342 99.1992C77.9358 99.2305 78.1154 99.2852 78.3733 99.3633C78.6389 99.4414 78.8147 99.4961 78.9006 99.5273C79.2522 99.6445 79.5647 99.7734 79.8381 99.9141C80.1194 100.055 80.3889 100.234 80.6467 100.453C80.9045 100.664 81.1037 100.93 81.2444 101.25C81.385 101.57 81.4553 101.93 81.4553 102.328C81.4553 103.242 81.1154 103.953 80.4358 104.461C79.7639 104.961 78.9201 105.211 77.9045 105.211C77.0217 105.211 76.2326 104.996 75.5373 104.566C74.842 104.137 74.3381 103.551 74.0256 102.809Z" fill="black"/>
<path d="M84.2392 99.5273V97.9453H85.247V97.3594C85.247 96.6172 85.4306 96.0586 85.7978 95.6836C86.165 95.3008 86.6923 95.1094 87.3798 95.1094H88.622V96.7148H87.6728C87.4775 96.7148 87.3369 96.7734 87.2509 96.8906C87.165 97.0078 87.122 97.2031 87.122 97.4766V97.9453H88.4697V99.5273H87.122V105H85.247V99.5273H84.2392Z" fill="black"/>
<path d="M88.5784 101.449C88.5784 100.301 88.8987 99.3945 89.5394 98.7305C90.18 98.0664 90.973 97.7344 91.9183 97.7344C92.8323 97.7344 93.6058 98.0781 94.2386 98.7656C94.8792 99.4453 95.1995 100.34 95.1995 101.449C95.1995 101.676 95.1878 101.902 95.1644 102.129H90.4769C90.4769 102.574 90.6175 102.953 90.8987 103.266C91.18 103.57 91.5589 103.723 92.0355 103.723C92.387 103.723 92.6917 103.637 92.9495 103.465C93.2151 103.285 93.4144 103.059 93.5472 102.785L95.1058 103.336C94.8714 103.859 94.4886 104.305 93.9573 104.672C93.4261 105.031 92.7659 105.211 91.9769 105.211C90.9847 105.211 90.1683 104.871 89.5276 104.191C88.8948 103.512 88.5784 102.598 88.5784 101.449ZM90.4886 100.852H93.2894C93.2894 100.398 93.1683 100.012 92.9261 99.6914C92.6917 99.3633 92.3558 99.1992 91.9183 99.1992C91.473 99.1992 91.1214 99.3633 90.8636 99.6914C90.6136 100.02 90.4886 100.406 90.4886 100.852Z" fill="black"/>
<path d="M95.5309 101.449C95.5309 100.301 95.8512 99.3945 96.4919 98.7305C97.1325 98.0664 97.9255 97.7344 98.8708 97.7344C99.7848 97.7344 100.558 98.0781 101.191 98.7656C101.832 99.4453 102.152 100.34 102.152 101.449C102.152 101.676 102.14 101.902 102.117 102.129H97.4294C97.4294 102.574 97.57 102.953 97.8512 103.266C98.1325 103.57 98.5114 103.723 98.988 103.723C99.3395 103.723 99.6442 103.637 99.902 103.465C100.168 103.285 100.367 103.059 100.5 102.785L102.058 103.336C101.824 103.859 101.441 104.305 100.91 104.672C100.379 105.031 99.7184 105.211 98.9294 105.211C97.9372 105.211 97.1208 104.871 96.4801 104.191C95.8473 103.512 95.5309 102.598 95.5309 101.449ZM97.4411 100.852H100.242C100.242 100.398 100.121 100.012 99.8786 99.6914C99.6442 99.3633 99.3083 99.1992 98.8708 99.1992C98.4255 99.1992 98.0739 99.3633 97.8161 99.6914C97.5661 100.02 97.4411 100.406 97.4411 100.852Z" fill="black"/>
<path d="M102.483 101.461C102.483 100.297 102.765 99.3867 103.327 98.7305C103.897 98.0664 104.628 97.7344 105.519 97.7344C106.175 97.7344 106.702 97.9766 107.101 98.4609V95.1094H108.964V105H107.147V104.297C107.007 104.539 106.784 104.754 106.48 104.941C106.175 105.121 105.851 105.211 105.507 105.211C105.132 105.211 104.769 105.141 104.417 105C104.073 104.859 103.753 104.648 103.456 104.367C103.159 104.086 102.921 103.695 102.741 103.195C102.569 102.695 102.483 102.117 102.483 101.461ZM104.405 101.461C104.405 102.156 104.526 102.691 104.769 103.066C105.019 103.434 105.355 103.617 105.776 103.617C106.19 103.617 106.515 103.426 106.749 103.043C106.991 102.66 107.112 102.133 107.112 101.461C107.112 100.82 106.999 100.305 106.772 99.9141C106.546 99.5234 106.214 99.3281 105.776 99.3281C105.323 99.3281 104.98 99.5234 104.745 99.9141C104.519 100.297 104.405 100.812 104.405 101.461Z" fill="black"/>
<path d="M109.623 103.477L110.936 102.703C111.412 103.375 112.01 103.711 112.729 103.711C113.026 103.711 113.256 103.648 113.42 103.523C113.592 103.391 113.678 103.23 113.678 103.043C113.678 102.98 113.666 102.918 113.643 102.855C113.627 102.793 113.596 102.738 113.549 102.691C113.51 102.637 113.467 102.59 113.42 102.551C113.373 102.512 113.307 102.473 113.221 102.434C113.143 102.387 113.073 102.352 113.01 102.328C112.948 102.297 112.862 102.262 112.752 102.223C112.651 102.184 112.565 102.156 112.495 102.141C112.424 102.117 112.327 102.086 112.202 102.047C112.077 102.008 111.983 101.977 111.92 101.953C111.327 101.758 110.85 101.504 110.491 101.191C110.139 100.879 109.963 100.422 109.963 99.8203C109.963 99.1797 110.237 98.6719 110.784 98.2969C111.338 97.9219 111.991 97.7344 112.741 97.7344C113.327 97.7344 113.885 97.8906 114.416 98.2031C114.955 98.5078 115.358 98.9102 115.623 99.4102L114.393 100.137C113.893 99.5352 113.35 99.2344 112.764 99.2344C112.483 99.2344 112.26 99.293 112.096 99.4102C111.94 99.5273 111.862 99.6758 111.862 99.8555C111.862 99.9414 111.877 100.023 111.909 100.102C111.94 100.172 111.991 100.238 112.061 100.301C112.139 100.363 112.209 100.418 112.272 100.465C112.342 100.512 112.44 100.559 112.565 100.605C112.698 100.652 112.799 100.691 112.87 100.723C112.948 100.746 113.069 100.785 113.233 100.84C113.397 100.887 113.514 100.922 113.584 100.945C114.928 101.398 115.6 102.105 115.6 103.066C115.6 103.66 115.358 104.168 114.873 104.59C114.389 105.004 113.694 105.211 112.787 105.211C112.077 105.211 111.44 105.055 110.877 104.742C110.323 104.422 109.905 104 109.623 103.477Z" fill="black"/>
<path d="M118.407 99.5273V97.9453H119.415V97.3594C119.415 96.6172 119.599 96.0586 119.966 95.6836C120.333 95.3008 120.86 95.1094 121.548 95.1094H122.79V96.7148H121.841C121.646 96.7148 121.505 96.7734 121.419 96.8906C121.333 97.0078 121.29 97.2031 121.29 97.4766V97.9453H122.638V99.5273H121.29V105H119.415V99.5273H118.407Z" fill="black"/>
<path d="M124.668 101.473C124.668 102.246 124.813 102.797 125.102 103.125C125.391 103.453 125.711 103.617 126.063 103.617C126.211 103.617 126.356 103.586 126.497 103.523C126.645 103.453 126.793 103.348 126.942 103.207C127.09 103.059 127.211 102.836 127.305 102.539C127.399 102.234 127.446 101.879 127.446 101.473C127.446 101.059 127.399 100.703 127.305 100.406C127.219 100.109 127.098 99.8867 126.942 99.7383C126.793 99.5898 126.645 99.4844 126.497 99.4219C126.356 99.3594 126.211 99.3281 126.063 99.3281C125.711 99.3281 125.391 99.4922 125.102 99.8203C124.813 100.141 124.668 100.691 124.668 101.473ZM122.747 101.473C122.747 100.988 122.809 100.531 122.934 100.102C123.059 99.6641 123.247 99.2656 123.497 98.9062C123.754 98.5469 124.102 98.2617 124.54 98.0508C124.985 97.8398 125.493 97.7344 126.063 97.7344C126.633 97.7344 127.137 97.8398 127.575 98.0508C128.012 98.2617 128.356 98.5469 128.606 98.9062C128.864 99.2656 129.055 99.6641 129.18 100.102C129.305 100.531 129.368 100.988 129.368 101.473C129.368 101.785 129.34 102.098 129.286 102.41C129.231 102.715 129.125 103.043 128.969 103.395C128.821 103.738 128.629 104.043 128.395 104.309C128.161 104.566 127.84 104.781 127.434 104.953C127.036 105.125 126.579 105.211 126.063 105.211C125.555 105.211 125.102 105.129 124.704 104.965C124.305 104.801 123.985 104.594 123.743 104.344C123.5 104.086 123.301 103.789 123.145 103.453C122.997 103.109 122.891 102.777 122.829 102.457C122.774 102.137 122.747 101.809 122.747 101.473Z" fill="black"/>
<path d="M130.086 105V97.9453H131.879V98.543C132.027 98.3242 132.238 98.1367 132.512 97.9805C132.793 97.8164 133.105 97.7344 133.449 97.7344C133.855 97.7344 134.144 97.7773 134.316 97.8633V99.5742C134.043 99.4883 133.754 99.4453 133.449 99.4453C132.949 99.4453 132.574 99.6406 132.324 100.031C132.082 100.422 131.961 100.945 131.961 101.602V105H130.086Z" fill="black"/>
<path d="M136.702 99.5273V97.9453H137.71V95.9414H139.561V97.9453H141.026V99.5273H139.561V102.633C139.561 103.148 139.788 103.406 140.241 103.406H141.038V105H140.006C138.475 105 137.71 104.246 137.71 102.738V99.5273H136.702Z" fill="black"/>
<path d="M141.814 105V95.1094H143.666V98.4023H143.701C144.123 97.957 144.662 97.7344 145.318 97.7344C145.623 97.7344 145.908 97.7812 146.174 97.875C146.447 97.9688 146.701 98.1172 146.935 98.3203C147.178 98.5156 147.369 98.8008 147.51 99.1758C147.65 99.543 147.721 99.9766 147.721 100.477V105H145.846V100.688C145.846 99.7812 145.557 99.3281 144.978 99.3281C144.596 99.3281 144.279 99.5 144.029 99.8438C143.787 100.18 143.666 100.578 143.666 101.039V105H141.814Z" fill="black"/>
<path d="M148.357 101.449C148.357 100.301 148.677 99.3945 149.318 98.7305C149.958 98.0664 150.751 97.7344 151.697 97.7344C152.611 97.7344 153.384 98.0781 154.017 98.7656C154.657 99.4453 154.978 100.34 154.978 101.449C154.978 101.676 154.966 101.902 154.943 102.129H150.255C150.255 102.574 150.396 102.953 150.677 103.266C150.958 103.57 151.337 103.723 151.814 103.723C152.165 103.723 152.47 103.637 152.728 103.465C152.993 103.285 153.193 103.059 153.325 102.785L154.884 103.336C154.65 103.859 154.267 104.305 153.736 104.672C153.204 105.031 152.544 105.211 151.755 105.211C150.763 105.211 149.947 104.871 149.306 104.191C148.673 103.512 148.357 102.598 148.357 101.449ZM150.267 100.852H153.068C153.068 100.398 152.947 100.012 152.704 99.6914C152.47 99.3633 152.134 99.1992 151.697 99.1992C151.251 99.1992 150.9 99.3633 150.642 99.6914C150.392 100.02 150.267 100.406 150.267 100.852Z" fill="black"/>
<path d="M158.242 105V97.9453H160.035V98.6133H160.047C160.125 98.5039 160.223 98.3945 160.34 98.2852C160.465 98.168 160.66 98.0469 160.926 97.9219C161.191 97.7969 161.465 97.7344 161.746 97.7344C162.48 97.7344 163.031 98.0859 163.398 98.7891C163.844 98.0859 164.523 97.7344 165.437 97.7344C165.859 97.7344 166.219 97.8086 166.516 97.957C166.82 98.1055 167.055 98.3164 167.219 98.5898C167.383 98.8555 167.5 99.1445 167.57 99.457C167.641 99.7617 167.676 100.102 167.676 100.477V105H165.801V100.512C165.801 100.113 165.742 99.8164 165.625 99.6211C165.508 99.4258 165.312 99.3281 165.039 99.3281C164.68 99.3281 164.395 99.4805 164.184 99.7852C163.98 100.082 163.879 100.438 163.879 100.852V105H162.027V100.465C162.027 100.113 161.961 99.8359 161.828 99.6328C161.703 99.4297 161.516 99.3281 161.266 99.3281C160.883 99.3281 160.594 99.4688 160.398 99.75C160.211 100.023 160.117 100.391 160.117 100.852V105H158.242Z" fill="black"/>
<path d="M170.187 102.914C170.187 103.125 170.269 103.305 170.433 103.453C170.597 103.594 170.808 103.664 171.066 103.664C171.48 103.664 171.831 103.523 172.12 103.242C172.41 102.961 172.554 102.586 172.554 102.117V101.648C172.101 101.758 171.742 101.832 171.476 101.871C170.617 101.996 170.187 102.344 170.187 102.914ZM168.288 103.078C168.288 102.438 168.535 101.906 169.027 101.484C169.519 101.062 170.242 100.781 171.195 100.641C171.976 100.516 172.429 100.434 172.554 100.395V100.031C172.554 99.7422 172.452 99.5312 172.249 99.3984C172.054 99.2578 171.796 99.1875 171.476 99.1875C170.742 99.1875 170.109 99.4766 169.577 100.055L168.476 99.1055C169.242 98.1914 170.234 97.7344 171.452 97.7344C172.531 97.7344 173.296 97.9922 173.749 98.5078C174.202 99.0234 174.429 99.7539 174.429 100.699V105H172.613V104.273C172.472 104.539 172.238 104.762 171.91 104.941C171.581 105.121 171.206 105.211 170.785 105.211C170.019 105.211 169.41 105.016 168.956 104.625C168.511 104.227 168.288 103.711 168.288 103.078Z" fill="black"/>
<path d="M174.925 103.477L176.237 102.703C176.714 103.375 177.311 103.711 178.03 103.711C178.327 103.711 178.557 103.648 178.721 103.523C178.893 103.391 178.979 103.23 178.979 103.043C178.979 102.98 178.967 102.918 178.944 102.855C178.928 102.793 178.897 102.738 178.85 102.691C178.811 102.637 178.768 102.59 178.721 102.551C178.675 102.512 178.608 102.473 178.522 102.434C178.444 102.387 178.374 102.352 178.311 102.328C178.249 102.297 178.163 102.262 178.053 102.223C177.952 102.184 177.866 102.156 177.796 102.141C177.725 102.117 177.628 102.086 177.503 102.047C177.378 102.008 177.284 101.977 177.221 101.953C176.628 101.758 176.151 101.504 175.792 101.191C175.44 100.879 175.264 100.422 175.264 99.8203C175.264 99.1797 175.538 98.6719 176.085 98.2969C176.639 97.9219 177.292 97.7344 178.042 97.7344C178.628 97.7344 179.186 97.8906 179.717 98.2031C180.257 98.5078 180.659 98.9102 180.925 99.4102L179.694 100.137C179.194 99.5352 178.651 99.2344 178.065 99.2344C177.784 99.2344 177.561 99.293 177.397 99.4102C177.241 99.5273 177.163 99.6758 177.163 99.8555C177.163 99.9414 177.178 100.023 177.21 100.102C177.241 100.172 177.292 100.238 177.362 100.301C177.44 100.363 177.51 100.418 177.573 100.465C177.643 100.512 177.741 100.559 177.866 100.605C177.999 100.652 178.1 100.691 178.171 100.723C178.249 100.746 178.37 100.785 178.534 100.84C178.698 100.887 178.815 100.922 178.885 100.945C180.229 101.398 180.901 102.105 180.901 103.066C180.901 103.66 180.659 104.168 180.175 104.59C179.69 105.004 178.995 105.211 178.089 105.211C177.378 105.211 176.741 105.055 176.178 104.742C175.624 104.422 175.206 104 174.925 103.477Z" fill="black"/>
<path d="M181.092 103.477L182.404 102.703C182.881 103.375 183.479 103.711 184.197 103.711C184.494 103.711 184.725 103.648 184.889 103.523C185.061 103.391 185.147 103.23 185.147 103.043C185.147 102.98 185.135 102.918 185.111 102.855C185.096 102.793 185.065 102.738 185.018 102.691C184.979 102.637 184.936 102.59 184.889 102.551C184.842 102.512 184.775 102.473 184.69 102.434C184.611 102.387 184.541 102.352 184.479 102.328C184.416 102.297 184.33 102.262 184.221 102.223C184.119 102.184 184.033 102.156 183.963 102.141C183.893 102.117 183.795 102.086 183.67 102.047C183.545 102.008 183.451 101.977 183.389 101.953C182.795 101.758 182.318 101.504 181.959 101.191C181.607 100.879 181.432 100.422 181.432 99.8203C181.432 99.1797 181.705 98.6719 182.252 98.2969C182.807 97.9219 183.459 97.7344 184.209 97.7344C184.795 97.7344 185.354 97.8906 185.885 98.2031C186.424 98.5078 186.826 98.9102 187.092 99.4102L185.861 100.137C185.361 99.5352 184.818 99.2344 184.232 99.2344C183.951 99.2344 183.729 99.293 183.565 99.4102C183.408 99.5273 183.33 99.6758 183.33 99.8555C183.33 99.9414 183.346 100.023 183.377 100.102C183.408 100.172 183.459 100.238 183.529 100.301C183.607 100.363 183.678 100.418 183.74 100.465C183.811 100.512 183.908 100.559 184.033 100.605C184.166 100.652 184.268 100.691 184.338 100.723C184.416 100.746 184.537 100.785 184.701 100.84C184.865 100.887 184.982 100.922 185.053 100.945C186.397 101.398 187.068 102.105 187.068 103.066C187.068 103.66 186.826 104.168 186.342 104.59C185.857 105.004 185.162 105.211 184.256 105.211C183.545 105.211 182.908 105.055 182.346 104.742C181.791 104.422 181.373 104 181.092 103.477Z" fill="black"/>
<path d="M187.388 101.449C187.388 100.301 187.708 99.3945 188.349 98.7305C188.99 98.0664 189.783 97.7344 190.728 97.7344C191.642 97.7344 192.415 98.0781 193.048 98.7656C193.689 99.4453 194.009 100.34 194.009 101.449C194.009 101.676 193.997 101.902 193.974 102.129H189.287C189.287 102.574 189.427 102.953 189.708 103.266C189.99 103.57 190.369 103.723 190.845 103.723C191.197 103.723 191.501 103.637 191.759 103.465C192.025 103.285 192.224 103.059 192.357 102.785L193.915 103.336C193.681 103.859 193.298 104.305 192.767 104.672C192.236 105.031 191.576 105.211 190.787 105.211C189.794 105.211 188.978 104.871 188.337 104.191C187.705 103.512 187.388 102.598 187.388 101.449ZM189.298 100.852H192.099C192.099 100.398 191.978 100.012 191.736 99.6914C191.501 99.3633 191.165 99.1992 190.728 99.1992C190.283 99.1992 189.931 99.3633 189.673 99.6914C189.423 100.02 189.298 100.406 189.298 100.852Z" fill="black"/>
<path d="M194.212 103.477L195.524 102.703C196.001 103.375 196.598 103.711 197.317 103.711C197.614 103.711 197.845 103.648 198.009 103.523C198.18 103.391 198.266 103.23 198.266 103.043C198.266 102.98 198.255 102.918 198.231 102.855C198.216 102.793 198.184 102.738 198.137 102.691C198.098 102.637 198.055 102.59 198.009 102.551C197.962 102.512 197.895 102.473 197.809 102.434C197.731 102.387 197.661 102.352 197.598 102.328C197.536 102.297 197.45 102.262 197.341 102.223C197.239 102.184 197.153 102.156 197.083 102.141C197.012 102.117 196.915 102.086 196.79 102.047C196.665 102.008 196.571 101.977 196.509 101.953C195.915 101.758 195.438 101.504 195.079 101.191C194.727 100.879 194.552 100.422 194.552 99.8203C194.552 99.1797 194.825 98.6719 195.372 98.2969C195.927 97.9219 196.579 97.7344 197.329 97.7344C197.915 97.7344 198.473 97.8906 199.005 98.2031C199.544 98.5078 199.946 98.9102 200.212 99.4102L198.981 100.137C198.481 99.5352 197.938 99.2344 197.352 99.2344C197.071 99.2344 196.848 99.293 196.684 99.4102C196.528 99.5273 196.45 99.6758 196.45 99.8555C196.45 99.9414 196.466 100.023 196.497 100.102C196.528 100.172 196.579 100.238 196.649 100.301C196.727 100.363 196.798 100.418 196.86 100.465C196.93 100.512 197.028 100.559 197.153 100.605C197.286 100.652 197.387 100.691 197.458 100.723C197.536 100.746 197.657 100.785 197.821 100.84C197.985 100.887 198.102 100.922 198.173 100.945C199.516 101.398 200.188 102.105 200.188 103.066C200.188 103.66 199.946 104.168 199.462 104.59C198.977 105.004 198.282 105.211 197.376 105.211C196.665 105.211 196.028 105.055 195.466 104.742C194.911 104.422 194.493 104 194.212 103.477Z" fill="black"/>
<path d="M201.328 105V102.914H203.637V105H201.328Z" fill="black"/>
<path d="M-1.52588e-05 0L-1.52588e-05 11L11 0L-1.52588e-05 0Z" fill="black"/>
</g>
</svg>
