<svg width="159" height="59" viewBox="0 0 159 59" fill="none" xmlns="http://www.w3.org/2000/svg">
<path d="M0 57.6953V16.543H10.459V20.4395H10.5273C10.9831 19.8014 11.5527 19.1634 12.2363 18.5254C12.9655 17.8418 14.1048 17.1354 15.6543 16.4062C17.2038 15.6771 18.7988 15.3125 20.4395 15.3125C24.7233 15.3125 27.9362 17.3633 30.0781 21.4648C32.6758 17.3633 36.6406 15.3125 41.9727 15.3125C44.4336 15.3125 46.5299 15.7454 48.2617 16.6113C50.0391 17.4772 51.4062 18.7077 52.3633 20.3027C53.3203 21.8522 54.0039 23.5384 54.4141 25.3613C54.8242 27.1387 55.0293 29.1211 55.0293 31.3086V57.6953H44.0918V31.5137C44.0918 29.1895 43.75 27.4577 43.0664 26.3184C42.3828 25.179 41.2435 24.6094 39.6484 24.6094C37.5521 24.6094 35.8887 25.498 34.6582 27.2754C33.4733 29.0072 32.8809 31.0807 32.8809 33.4961V57.6953H22.0801V31.2402C22.0801 29.1895 21.6927 27.5716 20.918 26.3867C20.1888 25.2018 19.0951 24.6094 17.6367 24.6094C15.4036 24.6094 13.7174 25.4297 12.5781 27.0703C11.4844 28.6654 10.9375 30.8073 10.9375 33.4961V57.6953H0Z" fill="#050505"/>
<path d="M52.3715 36.9824C52.3715 30.2832 54.24 24.9967 57.977 21.123C61.7139 17.2493 66.3396 15.3125 71.8539 15.3125C77.1859 15.3125 81.6977 17.3177 85.3891 21.3281C89.126 25.293 90.9945 30.5111 90.9945 36.9824C90.9945 38.304 90.9262 39.6257 90.7895 40.9473H63.4457C63.4457 43.5449 64.266 45.7552 65.9066 47.5781C67.5473 49.3555 69.7576 50.2441 72.5375 50.2441C74.5883 50.2441 76.3656 49.7428 77.8695 48.7402C79.419 47.6921 80.5811 46.3704 81.3559 44.7754L90.4477 47.9883C89.0805 51.0417 86.8474 53.6393 83.7484 55.7812C80.6495 57.8776 76.7986 58.9258 72.1957 58.9258C66.4079 58.9258 61.6456 56.9434 57.9086 52.9785C54.2172 49.0137 52.3715 43.6816 52.3715 36.9824ZM63.5141 33.4961H79.852C79.852 30.8529 79.1456 28.597 77.7328 26.7285C76.3656 24.8145 74.406 23.8574 71.8539 23.8574C69.2562 23.8574 67.2055 24.8145 65.7016 26.7285C64.2432 28.6426 63.5141 30.8984 63.5141 33.4961Z" fill="#050505"/>
<path d="M86.6277 36.9824C86.6277 30.2832 88.4962 24.9967 92.2332 21.123C95.9702 17.2493 100.596 15.3125 106.11 15.3125C111.442 15.3125 115.954 17.3177 119.645 21.3281C123.382 25.293 125.251 30.5111 125.251 36.9824C125.251 38.304 125.182 39.6257 125.046 40.9473H97.702C97.702 43.5449 98.5223 45.7552 100.163 47.5781C101.804 49.3555 104.014 50.2441 106.794 50.2441C108.845 50.2441 110.622 49.7428 112.126 48.7402C113.675 47.6921 114.837 46.3704 115.612 44.7754L124.704 47.9883C123.337 51.0417 121.104 53.6393 118.005 55.7812C114.906 57.8776 111.055 58.9258 106.452 58.9258C100.664 58.9258 95.9018 56.9434 92.1648 52.9785C88.4734 49.0137 86.6277 43.6816 86.6277 36.9824ZM97.7703 33.4961H114.108C114.108 30.8529 113.402 28.597 111.989 26.7285C110.622 24.8145 108.662 23.8574 106.11 23.8574C103.512 23.8574 101.462 24.8145 99.9578 26.7285C98.4995 28.6426 97.7703 30.8984 97.7703 33.4961Z" fill="#050505"/>
<path d="M120.884 37.0508C120.884 30.2604 122.525 24.9512 125.806 21.123C129.133 17.2493 133.394 15.3125 138.589 15.3125C142.417 15.3125 145.493 16.7253 147.818 19.5508V0H158.687V57.6953H148.091V53.5938C147.271 55.0065 145.972 56.2598 144.195 57.3535C142.417 58.4017 140.526 58.9258 138.521 58.9258C136.333 58.9258 134.214 58.5156 132.163 57.6953C130.158 56.875 128.29 55.6445 126.558 54.0039C124.826 52.3633 123.436 50.0846 122.388 47.168C121.385 44.2513 120.884 40.8789 120.884 37.0508ZM132.095 37.0508C132.095 41.1068 132.801 44.2285 134.214 46.416C135.672 48.5579 137.632 49.6289 140.093 49.6289C142.508 49.6289 144.4 48.5124 145.767 46.2793C147.18 44.0462 147.886 40.9701 147.886 37.0508C147.886 33.3138 147.225 30.306 145.904 28.0273C144.582 25.7487 142.645 24.6094 140.093 24.6094C137.45 24.6094 135.445 25.7487 134.077 28.0273C132.756 30.2604 132.095 33.2682 132.095 37.0508Z" fill="#050505"/>
</svg>
