<?xml version="1.0" standalone="no"?>
<!DOCTYPE svg PUBLIC "-//W3C//DTD SVG 20010904//EN"
 "http://www.w3.org/TR/2001/REC-SVG-20010904/DTD/svg10.dtd">
<svg version="1.0" xmlns="http://www.w3.org/2000/svg"
 width="512.000000pt" height="512.000000pt" viewBox="0 0 512.000000 512.000000"
 preserveAspectRatio="xMidYMid meet">
<metadata>
Created by potrace 1.11, written by Peter Selinger 2001-2013
</metadata>
<g transform="translate(0.000000,512.000000) scale(0.100000,-0.100000)"
fill="#000000" stroke="none">
<path d="M1942 4060 c-92 -13 -182 -45 -307 -109 -95 -48 -124 -69 -207 -152
l-98 -96 0 139 0 138 -380 0 -380 0 0 -1505 0 -1505 108 0 c60 0 238 3 395 7
l287 6 0 891 c0 499 5 931 10 981 12 116 33 193 74 280 47 99 102 157 191 201
64 31 86 37 164 42 112 6 167 -8 224 -58 54 -48 92 -118 116 -213 18 -69 20
-139 27 -1101 l7 -1026 388 0 388 0 3 962 3 963 34 99 c57 164 144 277 258
335 62 31 170 54 223 47 171 -23 245 -112 280 -336 6 -41 10 -440 10 -1067 l0
-1003 395 0 395 0 0 1023 c0 598 -4 1061 -10 1117 -22 207 -62 346 -148 512
-86 169 -195 273 -363 352 -289 135 -732 103 -1000 -73 -86 -57 -190 -157
-244 -236 l-38 -54 -34 57 c-146 242 -353 372 -616 386 -50 2 -121 1 -155 -4z"/>
</g>
</svg>
